<?xml version="1.0" encoding="utf-8"?>
<!-- Generator: Adobe Illustrator 19.0.0, SVG Export Plug-In . SVG Version: 6.00 Build 0)  -->
<svg version="1.1" id="Layer_1" xmlns="http://www.w3.org/2000/svg" xmlns:xlink="http://www.w3.org/1999/xlink" x="0px" y="0px"
	 viewBox="0 0 500 500" style="enable-background:new 0 0 500 500;" xml:space="preserve">
<style type="text/css">
	.st0{fill:#1A476F;}
	.st1{fill:#1F5B98;}
	.st2{fill:#2D72B8;}
	.st3{fill:#5294CF;}
</style>
<g id="XMLID_1_">
	<polyline id="XMLID_2_" class="st0" points="88.1,351.8 126,396.3 129.4,392.2 129.4,108 126,103.7 88.1,148.1 88.1,351.8 	"/>
	<polyline id="XMLID_3_" class="st1" points="126,396.3 198.4,432.5 201.5,427.6 201.5,71.3 198.5,67.5 126,103.6 126,396.3 	"/>
	<polyline id="XMLID_4_" class="st2" points="411.9,148.1 374,103.7 369.8,105 370.6,392.6 374,396.3 411.9,351.8 411.9,148.1 	"/>
	<polyline id="XMLID_5_" class="st3" points="301.6,432.5 374,396.3 374,103.6 301.5,67.5 298.1,72.1 298.1,427.2 301.6,432.5 	"/>
	<rect id="XMLID_6_" x="198.5" y="67.5" class="st2" width="103" height="365"/>
</g>
</svg>
